<svg width="161" height="115" viewBox="0 0 161 115" fill="none" xmlns="http://www.w3.org/2000/svg">
<g id="Australia (AU)" clip-path="url(#clip0_16_105)">
<path id="Vector" d="M0.5 0H160.5V115H0.5V0Z" fill="#000066"/>
<path id="Vector_2" fill-rule="evenodd" clip-rule="evenodd" d="M75.45 94.0364L64.525 94.9468L66.025 105.345L58.5 97.7499L50.975 105.345L52.475 94.9468L41.55 94.0364L50.975 88.6937L44.9 79.9489L55.15 83.6624L58.5 73.6718L61.875 83.6624L72.125 79.9489L66.05 88.6937M122.15 103.62L119.5 99.8343L123.95 101.44L125.4 97.1031L126.85 101.44L131.3 99.8343L128.675 103.62L132.775 105.944L128.025 106.351L128.675 110.879L125.425 107.549L122.125 110.879L122.775 106.351L118.025 105.968M122.125 36.0333L119.5 32.2479L123.95 33.8531L125.4 29.5166L126.85 33.8531L131.3 32.2479L128.675 36.0333L132.775 38.3812L128.025 38.7645L128.675 43.2926L125.425 39.9864L122.125 43.2687L122.775 38.7645L118.025 38.3812M95.7 63.4895L93.075 59.7041L97.525 61.3093L98.975 56.9729L100.45 61.3093L104.9 59.7041L102.25 63.4895L106.35 65.8135L101.6 66.2208L102.275 70.7489L98.975 67.4187L95.725 70.7489L96.35 66.2208L91.6 65.8374M145.675 56.7333L143 52.9479L147.45 54.5531L148.9 50.2166L150.375 54.5531L154.825 52.9479L152.2 56.7333L156.275 59.0572L151.525 59.4645L152.175 63.9687L148.925 60.6624L145.625 63.9687L146.275 59.4645L141.525 59.0572M136 76.6666L133.425 78.2239L134.15 75.3728L131.825 73.5041L134.85 73.2645L136 70.5812L137.175 73.2885L140.2 73.5041L137.875 75.3728L138.6 78.2239" fill="white"/>
<path id="Vector_3" d="M0.5 0H80.5V57.5H0.5V0Z" fill="#000066"/>
<path id="Vector_4" d="M9.875 0L40.375 21.6823L70.75 0H80.5V7.42708L50.5 28.8698L80.5 50.1927V57.5H70.5L40.5 36.0573L10.625 57.5H0.5V50.3125L30.375 28.9896L0.5 7.66667V0H9.875Z" fill="white"/>
<path id="Vector_5" d="M53.5 33.6615L80.5 52.7083V57.5L46.625 33.6615H53.5ZM30.5 36.0573L31.25 40.25L7.25 57.5H0.5L30.5 36.0573ZM80.5 0V0.359375L49.375 22.8802L49.625 17.6094L74.25 0H80.5ZM0.5 0L30.375 21.0833H22.875L0.5 5.03125V0Z" fill="#C8102E"/>
<path id="Vector_6" d="M30.625 0V57.5H50.625V0H30.625ZM0.5 19.1667V38.3333H80.5V19.1667H0.5Z" fill="white"/>
<path id="Vector_7" d="M0.5 23.1198V34.6198H80.5V23.1198H0.5ZM34.625 0V57.5H46.625V0H34.625Z" fill="#C8102E"/>
</g>
<defs>
<clipPath id="clip0_16_105">
<rect width="160" height="115" fill="white" transform="translate(0.5)"/>
</clipPath>
</defs>
</svg>
