<svg width="140" height="105" viewBox="0 0 140 105" fill="none" xmlns="http://www.w3.org/2000/svg">
<g id="Canada (CA)" clip-path="url(#clip0_16_113)">
<path id="Vector" d="M32.8411 0H107.141V105H32.8413L32.8411 0Z" fill="white"/>
<path id="Vector_2" d="M-4.29834 0H32.8413V105H-4.29834V0ZM107.141 0H144.281V105H107.162L107.141 0ZM43.9772 50.7364L41.0649 51.7208L54.4975 63.5127C55.523 66.5273 54.149 67.4091 53.267 69.0088L67.8277 67.163L67.479 81.8261L70.5142 81.744L69.8374 67.1836L84.4389 68.9268C83.5366 67.0195 82.7368 66.0146 83.5571 62.9794L96.9694 51.8026L94.6314 50.9414C92.7035 49.4648 95.4517 43.8253 95.8618 40.2568C95.8618 40.2568 88.0483 42.9432 87.5355 41.5284L85.5259 37.6935L78.4097 45.5273C77.6303 45.712 77.3022 45.4042 77.1178 44.7479L80.399 28.3828L75.1899 31.3154C74.7592 31.5206 74.3285 31.3565 74.0415 30.8438L69.017 20.7948L63.8491 31.2336C63.4595 31.6026 63.0699 31.6435 62.7418 31.3976L57.7788 28.6086L60.773 44.83C60.5269 45.4862 59.9527 45.6503 59.2964 45.3018L52.4673 37.5703C51.5855 39.006 50.9907 41.3232 49.8014 41.8565C48.6324 42.3487 44.6743 40.8721 42.0288 40.2979C42.9311 43.5586 45.7613 48.9727 43.9772 50.7568V50.7364Z" fill="#D52B1E"/>
</g>
<defs>
<clipPath id="clip0_16_113">
<rect width="140" height="105" fill="white"/>
</clipPath>
</defs>
</svg>
