<svg width="161" height="115" viewBox="0 0 161 115" fill="none" xmlns="http://www.w3.org/2000/svg">
<g id="China (CN)" clip-path="url(#clip0_16_117)">
<path id="Vector" d="M0.5 0H160.5V115H0.5V0Z" fill="#DE2910"/>
<path id="Vector_2" d="M19.7002 42.55L30.5 11.5L41.2999 42.55L12.5002 23.575H48.4998L19.7002 42.55Z" fill="#FFDE00"/>
<path id="Vector_3" d="M66.5427 12.095L55.4283 14.4554L62.842 6.17617L62.1149 17.3189L55.9471 7.45423L66.5427 12.095Z" fill="#FFDE00"/>
<path id="Vector_4" d="M77.7598 25.7185L66.5601 23.7631L76.7441 18.8875L71.5644 28.8877L69.8716 17.5028L77.7598 25.7185Z" fill="#FFDE00"/>
<path id="Vector_5" d="M76.125 44.8318L66.7313 38.6689L78.1048 38.1978L69.1196 45.304L72.4191 34.2473L76.125 44.8318Z" fill="#FFDE00"/>
<path id="Vector_6" d="M61.9972 57.318L55.8162 48.1563L66.4969 51.9315L55.3451 55.1605L62.8446 46.1831L61.9972 57.318Z" fill="#FFDE00"/>
</g>
<defs>
<clipPath id="clip0_16_117">
<rect width="160" height="115" fill="white" transform="translate(0.5)"/>
</clipPath>
</defs>
</svg>
