<svg width="140" height="106" viewBox="0 0 140 106" fill="none" xmlns="http://www.w3.org/2000/svg">
<g id="United States of America (US)" clip-path="url(#clip0_16_1247)">
<g id="Group">
<g id="Group_2">
<path id="Vector" fill-rule="evenodd" clip-rule="evenodd" d="M0 0.5H199.5V8.58019H0V0.5ZM0 16.6602H199.5V24.7403H0V16.6602ZM0 32.7998H199.5V40.9003H0V32.7998ZM0 48.9599H199.5V57.0401H0V48.9599ZM0 65.1201H199.5V73.2002H0V65.1201ZM0 81.2597H199.5V89.3398H0V81.2597ZM0 97.4198H199.5V105.5H0V97.4198Z" fill="#BD3D44"/>
<path id="Vector_2" fill-rule="evenodd" clip-rule="evenodd" d="M0 8.5802H199.5V16.6602H0V8.5802ZM0 24.7401H199.5V32.7998H0V24.7401ZM0 40.8799H199.5V48.9599H0V40.8799ZM0 57.0401H199.5V65.1201H0V57.0401ZM0 73.2003H199.5V81.2802H0V73.2003ZM0 89.3399H199.5V97.42H0V89.3399Z" fill="white"/>
</g>
<path id="Vector_3" fill-rule="evenodd" clip-rule="evenodd" d="M0 0.5H79.7958V57.0401H0V0.5Z" fill="#192F5D"/>
<path id="Vector_4" fill-rule="evenodd" clip-rule="evenodd" d="M6.64442 2.92004L7.3827 5.15501H9.7207L7.83377 6.5292L8.5517 8.78495L6.64442 7.39042L4.7577 8.76439L5.47542 6.5292L3.56836 5.15501H5.94727L6.64442 2.92004ZM19.954 2.92004L20.6718 5.15501H23.0301L21.1228 6.5292L21.8408 8.78495L19.954 7.39042L18.0468 8.76439L18.7645 6.5292L16.8778 5.15501H19.2158L19.954 2.92004ZM33.2431 2.92004L33.9814 5.15523H36.2988L34.4121 6.52942L35.1296 8.78517L33.2225 7.39064L31.3358 8.76461L32.0535 6.52942L30.1463 5.15523H32.5048L33.2431 2.92004ZM46.5527 2.92004L47.2702 5.15523H49.6288L47.7215 6.52942L48.4598 8.78517L46.5525 7.39064L44.6455 8.76461L45.3837 6.52942L43.4765 5.15523H45.8145L46.5527 2.92004ZM59.8418 2.92004L60.5801 5.15523H62.9179L61.0311 6.52942L61.7489 8.78517L59.8416 7.39064L57.9549 8.76461L58.6728 6.52942L56.7861 5.15523H59.1239L59.8418 2.92004ZM73.1512 2.92004L73.8689 5.15523H76.2275L74.3202 6.52942L75.0585 8.78517L73.1512 7.39064L71.2439 8.76461L71.9822 6.52942L70.0751 5.15523H72.4335L73.1512 2.92004ZM13.3095 8.57976L14.0272 10.8154H16.3856L14.4783 12.1891L15.1757 14.4248L13.3299 13.0506L11.4228 14.4245L12.0994 12.1894L10.2538 10.8152H12.5918L13.3095 8.57976ZM26.5986 8.57976L27.3369 10.8154H29.6746L27.7674 12.1891L28.5059 14.4248L26.5984 13.0506L24.6913 14.4245L25.4296 12.1894L23.5223 10.8152H25.8806L26.5986 8.57976ZM39.9082 8.57976L40.6257 10.8154H42.9843L41.077 12.1891L41.7947 14.4248L39.908 13.0506L38.0009 14.4245L38.7186 12.1896L36.8319 10.8154H39.1699L39.9082 8.57976ZM53.1973 8.57976L53.9355 10.8154H56.2733L54.366 12.1891L55.1043 14.4248L53.197 13.0506L51.3103 14.4245L52.0283 12.1894L50.121 10.8152H52.4999L53.1973 8.57976ZM66.5067 8.57976L67.2244 10.8154H69.583L67.6757 12.1891L68.3934 14.4248L66.5067 13.0506L64.5994 14.4245L65.3173 12.1894L63.4306 10.8152H65.7684L66.5067 8.57976ZM6.64442 14.22L7.3827 16.4963H9.7207L7.83377 17.8703L8.5517 20.1057L6.64442 18.7112L4.7577 20.1057L5.47542 17.8497L3.56836 16.476H5.94727L6.64442 14.22ZM19.954 14.22L20.6718 16.4753H23.0301L21.1228 17.8493L21.8408 20.0849L19.954 18.6902L18.0468 20.0847L18.7645 17.8289L16.8778 16.455H19.2158L19.954 14.22ZM33.2431 14.22L33.9814 16.4758H36.2988L34.4121 17.8497L35.1296 20.0854L33.2225 18.6906L31.3358 20.0851L32.0535 17.8294L30.1463 16.4554H32.5048L33.2431 14.22ZM46.5527 14.22L47.2702 16.4758H49.6288L47.7215 17.8497L48.4598 20.0854L46.5525 18.6906L44.6455 20.0851L45.3837 17.8294L43.4765 16.4554H45.8145L46.5527 14.22ZM59.8418 14.22L60.5801 16.4758H62.9179L61.0311 17.8495L61.7489 20.0851L59.8416 18.6904L57.9549 20.0849L58.6728 17.8292L56.7861 16.4552H59.1239L59.8418 14.22ZM73.1512 14.22L73.8689 16.4758H76.2275L74.3202 17.8497L75.0585 20.0854L73.1512 18.6906L71.2439 20.0851L71.9822 17.8294L70.0751 16.4554H72.4335L73.1512 14.22ZM13.3095 19.88L14.0272 22.1154H16.3856L14.4783 23.4891L15.1962 25.7451L13.3095 24.3505L11.4022 25.7245L12.12 23.4893L10.2332 22.1154H12.5715L13.3095 19.88ZM26.5986 19.88L27.3369 22.1154H29.6746L27.7674 23.4891L28.5059 25.7451L26.5984 24.3505L24.6913 25.7245L25.4296 23.4893L23.5223 22.1154H25.8806L26.5986 19.88ZM39.9082 19.88L40.6257 22.1154H42.9843L41.077 23.4891L41.7947 25.7451L39.908 24.3505L38.0009 25.7245L38.7186 23.4893L36.8319 22.1154H39.1699L39.9082 19.88ZM53.1973 19.88L53.9355 22.1154H56.2733L54.3866 23.4891L55.1043 25.7451L53.197 24.3505L51.3103 25.7245L52.0283 23.4893L50.121 22.1154H52.4999L53.1973 19.88ZM66.5067 19.88L67.2244 22.1154H69.583L67.6757 23.4891L68.3934 25.7451L66.5067 24.3505L64.5994 25.7245L65.3173 23.4893L63.4306 22.1154H65.7684L66.5067 19.88ZM6.64442 25.5401L7.3827 27.7755H9.7207L7.83377 29.1493L8.5517 31.4052L6.64442 30.0107L4.7577 31.3847L5.47542 29.1495L3.56836 27.7755H5.94727L6.64442 25.5401ZM19.954 25.5401L20.6718 27.7755H23.0301L21.1228 29.1493L21.8408 31.3849L19.954 30.0107L18.0468 31.3847L18.7645 29.1495L16.8778 27.7755H19.2158L19.954 25.5401ZM33.2431 25.5401L33.9814 27.7755H36.2988L34.4121 29.1493L35.1296 31.4052L33.2225 30.0107L31.3358 31.3847L32.0535 29.1495L30.1463 27.7755H32.5048L33.2431 25.5401ZM46.5527 25.5401L47.2702 27.7755H49.6288L47.7215 29.1493L48.4598 31.4052L46.5525 30.0107L44.6455 31.3847L45.3837 29.1495L43.4765 27.7755H45.8145L46.5527 25.5401ZM59.8418 25.5401L60.5801 27.7755H62.9179L61.0311 29.1493L61.7489 31.4052L59.8416 30.0107L57.9549 31.3847L58.6728 29.1495L56.7861 27.7755H59.1239L59.8418 25.5401ZM73.1512 25.5401L73.8689 27.7755H76.2275L74.3202 29.1493L75.0585 31.4052L73.1512 30.0107L71.2439 31.3847L71.9822 29.1495L70.0751 27.7755H72.4335L73.1512 25.5401ZM13.3095 31.2003L14.0272 33.4357H16.3856L14.4783 34.8094L15.1962 37.045L13.3095 35.6505L11.4022 37.045L12.12 34.7891L10.2332 33.4151H12.5715L13.3095 31.2003ZM26.5986 31.2003L27.3369 33.4357H29.6746L27.7674 34.8094L28.5059 37.045L26.5984 35.6505L24.6913 37.045L25.4296 34.7891L23.5223 33.4151H25.8806L26.5986 31.2003ZM39.9082 31.2003L40.6257 33.4357H42.9843L41.077 34.8094L41.7947 37.045L39.908 35.6505L38.0009 37.045L38.7186 34.7891L36.8319 33.4151H39.1699L39.9082 31.2003ZM53.1973 31.2003L53.9355 33.4357H56.2733L54.3866 34.8094L55.1043 37.045L53.197 35.6505L51.3103 37.045L52.0283 34.7891L50.121 33.4151H52.4999L53.1973 31.2003ZM66.5067 31.2003L67.2244 33.4357H69.583L67.6757 34.8094L68.3934 37.045L66.5067 35.6505L64.5994 37.045L65.3173 34.7891L63.4306 33.4151H65.7684L66.5067 31.2003ZM6.64442 36.8399L7.3827 39.0958H9.7207L7.83377 40.4696L8.5517 42.6846L6.64442 41.3107L4.7577 42.6844L5.47542 40.4492L3.56836 39.0753H5.94727L6.64442 36.8399ZM19.954 36.8399L20.6718 39.0958H23.0301L21.1228 40.4696L21.8613 42.6846L19.9538 41.3107L18.0468 42.6844L18.785 40.4492L16.8778 39.0753H19.2158L19.954 36.8399ZM33.2431 36.8399L33.9814 39.0958H36.2988L34.4121 40.4696L35.1296 42.6846L33.2225 41.3107L31.3358 42.6844L32.0535 40.4492L30.1463 39.0753H32.5048L33.2431 36.8399ZM46.5527 36.8399L47.2702 39.0958H49.6288L47.7215 40.4696L48.4598 42.6846L46.5525 41.3107L44.6455 42.6844L45.3837 40.4492L43.4765 39.0753H45.8145L46.5527 36.8399ZM59.8418 36.8399L60.5801 39.0958H62.9179L61.0311 40.4696L61.7489 42.6846L59.8416 41.3107L57.9549 42.6844L58.6728 40.4492L56.7861 39.0753H59.1239L59.8418 36.8399ZM73.1512 36.8399L73.8689 39.0958H76.2275L74.3202 40.4696L75.0585 42.6846L73.1512 41.3107L71.2439 42.6844L71.9822 40.4492L70.0751 39.0753H72.4335L73.1512 36.8399ZM13.3095 42.5L14.0272 44.7354H16.3856L14.4783 46.1094L15.1962 48.3654L13.3095 46.9708L11.4022 48.3446L12.12 46.1094L10.2332 44.7354H12.5715L13.3095 42.5ZM26.5986 42.5L27.3369 44.7354H29.6746L27.7674 46.1094L28.5059 48.3654L26.5984 46.9708L24.6913 48.3446L25.4296 46.1094L23.5223 44.7354H25.8806L26.5986 42.5ZM39.9082 42.5L40.6257 44.7354H42.9843L41.077 46.1094L41.7947 48.3654L39.908 46.9708L38.0009 48.3446L38.7186 46.1094L36.8319 44.7354H39.1699L39.9082 42.5ZM53.1973 42.5L53.9355 44.7354H56.2733L54.3866 46.1094L55.1043 48.3654L53.197 46.9708L51.3103 48.3446L52.0283 46.1094L50.121 44.7354H52.4999L53.1973 42.5ZM66.5067 42.5L67.2244 44.7354H69.583L67.6757 46.1094L68.3934 48.3654L66.5067 46.9708L64.5994 48.3446L65.3173 46.1094L63.4306 44.7354H65.7684L66.5067 42.5ZM6.64442 48.1602L7.3827 50.3956H9.7207L7.83377 51.7695L8.5517 54.0049L6.64442 52.631L4.7577 54.0047L5.47542 51.749L3.56836 50.375H5.94727L6.64442 48.1602ZM19.954 48.1602L20.6718 50.3956H23.0301L21.1228 51.7695L21.8613 54.0049L19.9538 52.631L18.0468 54.0047L18.785 51.749L16.8778 50.375H19.2158L19.954 48.1602ZM33.2431 48.1602L33.9814 50.3956H36.2988L34.453 51.7695L35.1707 54.0049L33.2635 52.631L31.3767 54.0047L32.0947 51.749L30.1874 50.375H32.5457L33.2431 48.1602ZM46.5527 48.1602L47.2702 50.3956H49.6288L47.7215 51.7695L48.4598 54.0049L46.5525 52.631L44.6455 54.0047L45.3837 51.749L43.4765 50.375H45.8145L46.5527 48.1602ZM59.8418 48.1602L60.5801 50.3956H62.9179L61.0311 51.7695L61.7489 54.0049L59.8416 52.631L57.9549 54.0047L58.6728 51.749L56.7861 50.375H59.1239L59.8418 48.1602ZM73.1512 48.1602L73.8689 50.3956H76.2275L74.3202 51.7695L75.0585 54.0049L73.1512 52.631L71.2439 54.0047L71.9822 51.749L70.0751 50.375H72.4335L73.1512 48.1602Z" fill="white"/>
</g>
</g>
<defs>
<clipPath id="clip0_16_1247">
<rect width="140" height="105" fill="white" transform="translate(0 0.5)"/>
</clipPath>
</defs>
</svg>
