<svg width="160" height="115" viewBox="0 0 160 115" fill="none" xmlns="http://www.w3.org/2000/svg">
<g id="United Kingdom (GB)" clip-path="url(#clip0_16_1218)">
<path id="Vector" d="M0 0H160V115H0V0Z" fill="#012169"/>
<path id="Vector_2" d="M18.75 0L79.75 43.3646L140.5 0H160V14.8542L100 57.7396L160 100.385V115H140L80 72.1146L20.25 115H0V100.625L59.75 57.9792L0 15.3333V0H18.75Z" fill="white"/>
<path id="Vector_3" d="M106 67.3229L160 105.417V115L92.25 67.3229H106ZM60 72.1146L61.5 80.5L13.5 115H0L60 72.1146ZM160 0V0.71875L97.75 45.7604L98.25 35.2188L147.5 0H160ZM0 0L59.75 42.1667H44.75L0 10.0625V0Z" fill="#C8102E"/>
<path id="Vector_4" d="M60.25 0V115H100.25V0H60.25ZM0 38.3333V76.6667H160V38.3333H0Z" fill="white"/>
<path id="Vector_5" d="M0 46.2396V69.2396H160V46.2396H0ZM68.25 0V115H92.25V0H68.25Z" fill="#C8102E"/>
</g>
<defs>
<clipPath id="clip0_16_1218">
<rect width="160" height="115" fill="white"/>
</clipPath>
</defs>
</svg>
